<svg width="24" height="24" viewBox="0 0 24 24" fill="none" xmlns="http://www.w3.org/2000/svg">
<path d="M7.06836 6.13086C7.64454 5.87695 8.06445 6.22852 7.82031 6.84375C7.53713 7.55664 7.33203 8.59187 7.33203 9.49023C7.3321 14.3241 10.0958 17.0879 14.9199 17.0879C15.8281 17.0879 16.8145 16.9023 17.4102 16.6973C17.9473 16.5312 18.2988 16.9023 18.0254 17.4785C16.7754 20.164 13.9336 22.2832 10.4277 22.2832C5.76959 22.2832 2.00007 18.5136 2 13.8555C2 10.3398 4.18754 7.38087 7.06836 6.13086ZM17.7812 5.84766C17.9668 5.84766 18.0937 5.97462 18.1133 6.16992C18.4355 8.77734 18.582 8.76758 21.248 9.27539C21.414 9.30469 21.541 9.42189 21.541 9.60742C21.541 9.79297 21.414 9.90039 21.209 9.92969C18.5625 10.3594 18.4355 10.4277 18.1133 13.0352C18.0937 13.2305 17.9668 13.3574 17.7812 13.3574C17.6055 13.3574 17.4785 13.2305 17.4492 13.0547C17.1074 10.4473 17.0195 10.4473 14.3145 9.92969C14.1485 9.90039 14.0215 9.7832 14.0215 9.60742C14.0215 9.42188 14.1485 9.29492 14.3145 9.27539C17.0195 8.89453 17.1172 8.80663 17.4492 6.16016C17.4785 5.97461 17.6055 5.84766 17.7812 5.84766ZM13.1133 2C13.2304 2 13.289 2.06836 13.3086 2.17578C13.6601 3.78709 13.6015 3.82618 15.3008 4.16797C15.4082 4.1875 15.4863 4.25586 15.4863 4.37305C15.4863 4.49023 15.4082 4.55859 15.3008 4.57812C13.6015 4.90039 13.6113 4.93947 13.3086 6.57031C13.289 6.67773 13.2304 6.74609 13.1133 6.74609C12.9961 6.74607 12.9277 6.67772 12.9082 6.57031C12.6054 4.93946 12.625 4.91992 10.9258 4.57812C10.8086 4.55858 10.7402 4.49021 10.7402 4.37305C10.7402 4.25588 10.8086 4.18751 10.9258 4.16797C12.625 3.82617 12.5664 3.7871 12.9082 2.17578C12.9277 2.06838 12.9961 2.00002 13.1133 2Z" fill="black"/>
</svg>
