<svg width="24" height="24" viewBox="0 0 24 24" fill="none" xmlns="http://www.w3.org/2000/svg">
<path d="M21.334 11.9941C21.334 17.4824 16.8711 21.9551 11.373 21.9551C5.88477 21.9551 1.41211 17.4824 1.41211 11.9941C1.41211 6.49609 5.88477 2.0332 11.373 2.0332C16.8711 2.0332 21.334 6.49609 21.334 11.9941ZM10.582 7.69726V13.3418L10.6307 14.8446L10.0547 14.2305L8.52149 12.6094C8.38477 12.4434 8.16016 12.3652 7.96484 12.3652C7.54492 12.3652 7.24219 12.6582 7.24219 13.0684C7.24219 13.2832 7.32031 13.459 7.47656 13.6055L10.7969 16.8086C11.0019 17.0137 11.1777 17.0723 11.3828 17.0723C11.5879 17.0723 11.7637 17.0137 11.9687 16.8086L15.2793 13.6055C15.4453 13.459 15.5234 13.2832 15.5234 13.0684C15.5234 12.6582 15.2109 12.3652 14.791 12.3652C14.5957 12.3652 14.3809 12.4434 14.2441 12.6094L12.7109 14.2305L12.1378 14.8415L12.1933 13.3418V7.69726C12.1933 7.26758 11.8223 6.91601 11.3828 6.91601C10.9434 6.91601 10.582 7.26758 10.582 7.69726Z" fill="black" fill-opacity="0.85"/>
</svg>
