<svg width="24" height="24" viewBox="0 0 24 24" fill="none" xmlns="http://www.w3.org/2000/svg">
<path d="M8.81917 4.75714C8.81917 3.23494 10.0199 2 11.5 2C12.9801 2 14.1808 3.23494 14.1808 4.75714C14.1808 6.27935 12.9801 7.51431 11.5 7.51431C10.0199 7.51431 8.81917 6.27935 8.81917 4.75714ZM19.9984 21.9967C19.9936 17.1808 16.1826 13.263 11.5 13.263C6.81739 13.263 3.00482 17.1825 3 21.9967L6.93299 22C6.93299 19.4129 8.98452 17.3062 11.5 17.3062C14.0155 17.3062 16.0655 19.4112 16.0655 22L19.9984 21.9967ZM3.0016 4.69771C3.00642 9.51362 6.81739 13.4314 11.5 13.4314C16.1826 13.4314 19.9952 9.512 20 4.69771L16.067 4.6944C16.067 7.28149 14.0155 9.38815 11.5 9.38815C8.98452 9.38815 6.93454 7.28315 6.93454 4.6944L3.0016 4.69771Z" fill="black"/>
</svg>
