<svg width="24" height="24" viewBox="0 0 24 24" fill="none" xmlns="http://www.w3.org/2000/svg">
<path d="M12.5332 3C13.0118 3.00001 13.334 3.20509 13.8516 3.69336L21.5566 10.9004C21.9374 11.2617 22.0547 11.623 22.0547 11.9551C22.0547 12.2773 21.9277 12.6484 21.5566 13L13.8516 20.2754C13.3829 20.7148 12.9922 20.9102 12.5137 20.9102C11.8497 20.9102 11.3613 20.4219 11.3613 19.7676V16.0371H11.0781C7.29881 16.0371 4.90624 16.9941 3.20703 20.1875C2.86523 20.8125 2.41602 20.9102 2.00586 20.9102C1.47852 20.9102 1 20.4414 1 19.6016C1.00001 12.3848 4.05664 7.88283 11.0781 7.88281H11.3613V4.19141C11.3613 3.53711 11.8497 3 12.5332 3Z" fill="black" fill-opacity="0.85"/>
</svg>
